<svg
              viewBox="0 0 86 24"
              fill="none"
              xmlns="http://www.w3.org/2000/svg"
              width="107.5"
              height="30"
            >
              <path
                d="M51.265 18.733c-.993 0-1.925-.486-2.52-1.357l-5.307-7.667a.763.763 0 0 0-.888-.31.763.763 0 0 0-.557.757v8.577h-2.295v-8.577c0-1.385.855-2.543 2.179-2.951 1.324-.409 2.68.066 3.464 1.213l5.306 7.667a.761.761 0 0 0 .888.31.763.763 0 0 0 .558-.756V7.056h2.294v8.582a3.035 3.035 0 0 1-2.179 2.952c-.314.099-.634.143-.943.143ZM60.145 9.35H70.19V7.056h-9.863a3.67 3.67 0 0 0-3.668 3.668v4.34a3.67 3.67 0 0 0 3.668 3.669h9.863v-2.295H60.145a1.194 1.194 0 0 1-1.191-1.191v-1.103h8.809v-2.295h-8.81v-1.302c0-.662.536-1.197 1.192-1.197ZM82.453 18.733h-9.317v-2.295h9.283c.635 0 1.225-.452 1.28-1.086a1.196 1.196 0 0 0-1.191-1.308h-6.42c-1.777 0-3.36-1.274-3.586-3.033a3.497 3.497 0 0 1 3.464-3.955h8.891V9.35h-8.82c-.628 0-1.197.447-1.263 1.07a1.201 1.201 0 0 0 1.192 1.324h6.542c2.289 0 4.065 2.207 3.32 4.606-.452 1.445-1.864 2.383-3.376 2.383Z"
                fill="#16171A"
              ></path>
              <path
                d="M0 11.59c0 .127.006.248.006.37.005.11.005.22.01.33.017.237.04.47.067.695.01.088.022.177.038.26.039.297.094.59.16.871.028.116.055.232.083.342.06.22.121.436.188.645.005.011.005.022.01.039.11.337.238.662.376.982a8.842 8.842 0 0 0 .452.921c.006.011.011.028.022.044.055.094.105.188.16.276.055.1.116.199.182.292.06.1.127.193.193.293.188.28.392.551.607.816a.128.128 0 0 0 .027.039c.144.17.287.336.436.502.077.088.16.17.237.248.067.066.133.132.199.193.066.066.132.127.204.187.033.033.066.061.105.094.06.055.116.105.176.154.072.061.144.116.21.177.116.094.232.188.347.276.089.066.16.121.243.176.127.094.26.188.392.27a6.743 6.743 0 0 1-.513-1.759.862.862 0 0 0-.855-.745h-.348a7.571 7.571 0 0 1-.138-1.28v-.005c0-.066.012-.281.012-.281l.8-.143c.39-.072.71-.354.827-.729a1.139 1.139 0 0 0-.43-1.268l-.75-.524a7.296 7.296 0 0 1 .783-1.6l1.202.563c.336.154.734.154 1.054-.033.502-.298.678-.91.44-1.424l-.622-1.334a7.868 7.868 0 0 1 2.245-1.153l.987 1.715a.846.846 0 0 0 .623.43.814.814 0 0 0 .916-.81V.232C5.086.232 0 5.318 0 11.59Z"
                fill="#0064FF"
              ></path>
              <path
                d="M18.346 15.958a6.984 6.984 0 0 1-6.763 6.983c-.077.006-.149.006-.226.006-.077 0-.149-.006-.226-.006a4.368 4.368 0 0 1 .226-8.731c.088 0 .176-.006.27-.011l.133-.017c.005 0 .016-.005.027-.005a2.803 2.803 0 0 0 2.377-2.77c0-.904-.435-1.715-1.103-2.228a6.99 6.99 0 0 1 5.285 6.78Z"
                fill="#0064FF"
              ></path>
              <path
                d="M31.347 6.824h-2.554a6.068 6.068 0 0 0 0 12.135h2.554a6.068 6.068 0 0 0 0-12.135Zm0 9.84h-2.554a3.771 3.771 0 0 1-3.773-3.772 3.771 3.771 0 0 1 3.773-3.773h2.554a3.771 3.771 0 0 1 3.773 3.773 3.771 3.771 0 0 1-3.773 3.773Z"
                fill="#16171A"
              ></path>
            </svg>
