<svg width="16" height="16" viewBox="0 0 16 16" fill="none" xmlns="http://www.w3.org/2000/svg">
<path d="M9.50851 15.306C7.79463 14.6979 5.95271 13.4649 4.32214 11.8344C2.69158 10.2038 1.45864 8.36187 0.850456 6.64798C0.207296 4.8352 0.333378 3.35656 1.20551 2.48444L1.91383 1.77611C2.10184 1.58852 2.35658 1.48318 2.62216 1.48318C2.88774 1.48318 3.14248 1.58852 3.33049 1.77611L5.88046 4.32609C6.06805 4.51409 6.1734 4.76883 6.1734 5.03441C6.1734 5.3 6.06805 5.55473 5.88046 5.74274L5.17214 6.45107C4.99612 6.62709 5.00966 7.05624 5.20826 7.57217C5.45609 8.21666 5.94643 8.92534 6.58879 9.56771C7.23115 10.2101 7.93983 10.7004 8.58432 10.9482C9.10025 11.1468 9.52941 11.1604 9.70543 10.9844L10.4138 10.276C10.6018 10.0884 10.8565 9.9831 11.1221 9.9831C11.3877 9.9831 11.6424 10.0884 11.8304 10.276L14.3804 12.826C14.568 13.014 14.6733 13.2688 14.6733 13.5343C14.6733 13.7999 14.568 14.0547 14.3804 14.2427L13.6721 14.951C12.7999 15.8231 11.3213 15.9492 9.50851 15.306Z" fill="#0064FF"/>
<path d="M13.0634 2.74508C14.0465 3.72817 14.5626 5.05262 14.5261 6.41498C14.5113 6.96707 14.0518 7.40265 13.4997 7.38788C12.9476 7.37312 12.5121 6.91359 12.5268 6.3615C12.5487 5.5424 12.2401 4.75012 11.6492 4.1593C11.0582 3.56828 10.2656 3.25959 9.44624 3.28172C8.89416 3.29663 8.43452 2.86117 8.41961 2.30908C8.40469 1.757 8.84016 1.29736 9.39224 1.28245C10.755 1.24564 12.08 1.76168 13.0634 2.74508Z" fill="#33DDFF"/>
</svg>
