<svg width="21" height="24" viewBox="0 0 21 24" fill="none" xmlns="http://www.w3.org/2000/svg">
<g filter="url(#filter0_f_2699_4939)">
<path d="M9.02734 22.4489L9.02764 22.4491C9.464 22.7511 9.9586 22.8968 10.4532 22.8968C10.9473 22.8968 11.4423 22.7462 11.8743 22.4539C11.8744 22.4538 11.8745 22.4538 11.8746 22.4537L13.9398 21.0351L9.02734 22.4489ZM9.02734 22.4489L6.96156 21.0299M9.02734 22.4489L6.96156 21.0299M6.96156 21.0299C3.14375 18.405 0.864955 14.0594 0.864955 9.40152V6.51113C0.864955 5.28476 1.77549 4.25139 2.97682 4.11603L2.97702 4.11601M6.96156 21.0299L2.97702 4.11601M2.97702 4.11601C4.81967 3.90466 6.6107 3.23901 8.14467 2.18748C8.14472 2.18745 8.14477 2.18741 8.14483 2.18738L9.12901 1.51732L9.12921 1.51718M2.97702 4.11601L9.12921 1.51718M9.12921 1.51718C9.93569 0.965254 10.981 0.965253 11.7874 1.51718L11.7876 1.51732M9.12921 1.51718L11.7876 1.51732M11.7876 1.51732L12.772 2.18751L11.7876 1.51732ZM17.9395 4.116C16.0915 3.9046 14.3057 3.2336 12.7721 2.18756L17.9395 4.116ZM17.9395 4.116C19.1309 4.25644 20.0415 5.2848 20.0415 6.51636V9.40676C20.0415 14.0593 17.7628 18.4049 13.9398 21.0351L17.9395 4.116Z" stroke="white" stroke-width="0.206472"/>
</g>
<path opacity="0.5" d="M10.4532 23C9.93804 23 9.42286 22.8481 8.96889 22.534L6.90307 21.115C3.05707 18.4707 0.761719 14.0932 0.761719 9.40152V6.51113C0.761719 5.23349 1.71047 4.15483 2.96526 4.01345C4.79134 3.804 6.56642 3.14423 8.08646 2.10223L9.07091 1.43199C9.91254 0.856004 11.0041 0.856004 11.8457 1.43199L12.8302 2.10223C14.3502 3.139 16.1202 3.804 17.9514 4.01345C19.196 4.16006 20.1447 5.23349 20.1447 6.51636V9.40676C20.1447 14.0932 17.8494 18.4707 13.9983 21.1202L11.9325 22.5392C11.4836 22.8429 10.9684 23 10.4532 23Z" fill="url(#paint0_linear_2699_4939)"/>
<path d="M10.453 21.3445C10.0154 21.3445 9.57774 21.2155 9.1921 20.9486L7.43721 19.7432C4.17009 17.4969 2.22021 13.7782 2.22021 9.79275V7.33739C2.22021 6.25206 3.02616 5.33575 4.0921 5.21565C5.64333 5.03772 7.15123 4.47726 8.44248 3.59209L9.27876 3.02273C9.99372 2.53344 10.921 2.53344 11.6359 3.02273L12.4722 3.59209C13.7635 4.47281 15.267 5.03772 16.8226 5.21565C17.8799 5.34019 18.6858 6.25205 18.6858 7.34184V9.79719C18.6858 13.7782 16.736 17.4969 13.4645 19.7476L11.7096 20.953C11.3283 21.211 10.8907 21.3445 10.453 21.3445Z" fill="url(#paint1_linear_2699_4939)"/>
<path d="M10.453 21.3445C10.0154 21.3445 9.57774 21.2155 9.1921 20.9486L7.43721 19.7432C4.17009 17.4969 2.22021 13.7782 2.22021 9.79275V7.33739C2.22021 6.25206 3.02616 5.33575 4.0921 5.21565C5.64333 5.03772 7.15123 4.47726 8.44248 3.59209L9.27876 3.02273C9.99372 2.53344 10.921 2.53344 11.6359 3.02273L12.4722 3.59209C13.7635 4.47281 15.267 5.03772 16.8226 5.21565C17.8799 5.34019 18.6858 6.25205 18.6858 7.34184V9.79719C18.6858 13.7782 16.736 17.4969 13.4645 19.7476L11.7096 20.953C11.3283 21.211 10.8907 21.3445 10.453 21.3445Z" fill="url(#paint2_linear_2699_4939)"/>
<path fill-rule="evenodd" clip-rule="evenodd" d="M6.30724 10.7325C6.08219 10.957 6.08219 11.3208 6.30724 11.5452L9.28496 14.5144C9.39304 14.6222 9.53964 14.6827 9.6925 14.6827C9.84536 14.6827 9.99195 14.6221 10.1 14.5143L15.3401 9.28723C15.5651 9.06278 15.565 8.69894 15.3399 8.47458C15.1149 8.25021 14.75 8.25028 14.525 8.47473L9.69237 13.2954L7.12222 10.7325C6.89717 10.5081 6.53229 10.5081 6.30724 10.7325Z" fill="url(#paint3_linear_2699_4939)"/>
<defs>
<filter id="filter0_f_2699_4939" x="0.0390663" y="0.277348" width="20.8284" height="23.4453" filterUnits="userSpaceOnUse" color-interpolation-filters="sRGB">
<feFlood flood-opacity="0" result="BackgroundImageFix"/>
<feBlend mode="normal" in="SourceGraphic" in2="BackgroundImageFix" result="shape"/>
<feGaussianBlur stdDeviation="0.361326" result="effect1_foregroundBlur_2699_4939"/>
</filter>
<linearGradient id="paint0_linear_2699_4939" x1="10.4223" y1="1" x2="10.1332" y2="32.7269" gradientUnits="userSpaceOnUse">
<stop offset="0.0506911" stop-color="white"/>
<stop offset="1" stop-color="white" stop-opacity="0.16"/>
</linearGradient>
<linearGradient id="paint1_linear_2699_4939" x1="10.4267" y1="2.65576" x2="10.1812" y2="29.6074" gradientUnits="userSpaceOnUse">
<stop offset="0.0506911" stop-color="white"/>
<stop offset="1" stop-color="white" stop-opacity="0.16"/>
</linearGradient>
<linearGradient id="paint2_linear_2699_4939" x1="21.5408" y1="1.56454" x2="19.9604" y2="18.0583" gradientUnits="userSpaceOnUse">
<stop offset="0.130208" stop-color="#EFFAFF"/>
<stop offset="1" stop-color="white" stop-opacity="0"/>
</linearGradient>
<linearGradient id="paint3_linear_2699_4939" x1="15.543" y1="8.21873" x2="1.62595" y2="14.5782" gradientUnits="userSpaceOnUse">
<stop stop-color="#00B3FF"/>
<stop offset="1" stop-color="#0064FF"/>
</linearGradient>
</defs>
</svg>
