<svg width="10" height="11" viewBox="0 0 10 11" fill="none" xmlns="http://www.w3.org/2000/svg">
<path d="M7.26321 6.6004C7.34795 6.38553 7.65205 6.38553 7.73679 6.6004L8.16655 7.69005C8.19242 7.75565 8.24435 7.80758 8.30995 7.83345L9.3996 8.26321C9.61447 8.34795 9.61447 8.65205 9.3996 8.73679L8.30995 9.16655C8.24435 9.19242 8.19242 9.24435 8.16655 9.30995L7.73679 10.3996C7.65205 10.6145 7.34795 10.6145 7.26321 10.3996L6.83345 9.30995C6.80758 9.24435 6.75565 9.19242 6.69005 9.16655L5.6004 8.73679C5.38553 8.65205 5.38553 8.34795 5.6004 8.26321L6.69005 7.83345C6.75565 7.80758 6.80758 7.75565 6.83345 7.69005L7.26321 6.6004Z" fill="url(#paint0_linear_2699_4935)"/>
<path d="M3.19555 0.771944C3.30451 0.495678 3.69549 0.495678 3.80445 0.771944L4.4378 2.37782C4.47107 2.46217 4.53783 2.52893 4.62218 2.5622L6.22806 3.19555C6.50432 3.30451 6.50432 3.69549 6.22806 3.80445L4.62218 4.4378C4.53783 4.47107 4.47107 4.53783 4.4378 4.62218L3.80445 6.22806C3.69549 6.50432 3.30451 6.50432 3.19555 6.22806L2.5622 4.62218C2.52893 4.53783 2.46217 4.47107 2.37782 4.4378L0.771944 3.80445C0.495678 3.69549 0.495678 3.30451 0.771944 3.19555L2.37782 2.5622C2.46217 2.52893 2.52893 2.46217 2.5622 2.37782L3.19555 0.771944Z" fill="url(#paint1_linear_2699_4935)"/>
<defs>
<linearGradient id="paint0_linear_2699_4935" x1="7.5" y1="6" x2="7.5" y2="11" gradientUnits="userSpaceOnUse">
<stop stop-color="white"/>
<stop offset="1" stop-color="white" stop-opacity="0.5"/>
</linearGradient>
<linearGradient id="paint1_linear_2699_4935" x1="3.5" y1="0" x2="3.5" y2="7" gradientUnits="userSpaceOnUse">
<stop stop-color="white"/>
<stop offset="1" stop-color="white" stop-opacity="0.5"/>
</linearGradient>
</defs>
</svg>
