<svg width="24" height="24" viewBox="0 0 24 24" fill="none" xmlns="http://www.w3.org/2000/svg">
<g clip-path="url(#clip0_368_97354)">
<g clip-path="url(#clip1_368_97354)">
<path fill-rule="evenodd" clip-rule="evenodd" d="M10.0409 1.5595C9.96959 1.36701 10.1077 1.16134 10.3125 1.15508L15.3814 1.00015C15.6255 0.99269 15.7757 1.26516 15.6394 1.46808L15.2124 2.10397C18.4803 3.72973 20.7251 7.1072 20.7251 11.0105C20.7251 13.3311 19.9308 15.4676 18.5991 17.1601H20.0754V16.4499C20.0754 16.3264 20.2163 16.2558 20.3152 16.3298L23.9044 19.0114C24.065 19.1314 24.065 19.3721 23.9044 19.4921L20.3152 22.1737C20.2163 22.2476 20.0754 22.177 20.0754 22.0536V21.2178L0.6 21.2178C0.26863 21.2178 0 20.9491 0 20.6178V17.7601C0 17.4287 0.268629 17.1601 0.6 17.1601H3.01964C1.68789 15.4676 0.893656 13.3311 0.893656 11.0105C0.893656 6.95039 3.32273 3.45986 6.80316 1.91741C7.10611 1.78315 7.4526 1.94288 7.56815 2.25345L8.56457 4.93177C8.68011 5.24234 8.52016 5.58508 8.22315 5.73202C6.28463 6.69112 4.95132 8.69491 4.95132 11.0105C4.95132 14.2636 7.57949 16.8909 10.8094 16.8909C14.0392 16.8909 16.6674 14.2636 16.6674 11.0105C16.6674 8.55803 15.1715 6.456 13.0477 5.57387C13.0045 5.55592 12.9637 5.5339 12.9259 5.50842L12.3352 6.38797C12.1989 6.59089 11.8905 6.55391 11.8055 6.32446L10.0409 1.5595Z" fill="url(#paint0_linear_368_97354)"/>
<path d="M14.0095 8.13439C13.8346 7.9552 13.5499 7.9552 13.375 8.13439L10.4223 11.1668L8.99422 9.70345C8.81935 9.52426 8.53462 9.52426 8.35975 9.70345L7.13115 10.9647C6.95628 11.1439 6.95628 11.4356 7.13115 11.6148L10.104 14.6656C10.2789 14.8448 10.5636 14.8448 10.7385 14.6656L15.2381 10.0503C15.4129 9.87115 15.4129 9.58169 15.2381 9.4002L14.0095 8.13439Z" fill="#8DAAFF"/>
</g>
</g>
<defs>
<linearGradient id="paint0_linear_368_97354" x1="10.7478" y1="1.346" x2="10.7478" y2="21.9525" gradientUnits="userSpaceOnUse">
<stop stop-color="#0064FF"/>
<stop offset="1" stop-color="#8DAAFF"/>
</linearGradient>
<clipPath id="clip0_368_97354">
<rect width="24" height="24" rx="3" fill="white"/>
</clipPath>
<clipPath id="clip1_368_97354">
<rect width="24" height="24" fill="white"/>
</clipPath>
</defs>
</svg>
