<svg width="24" height="24" viewBox="0 0 24 24" fill="none" xmlns="http://www.w3.org/2000/svg">
<path d="M10 6.50635H13.2189" stroke="#8DAAFF" stroke-linecap="round"/>
<path d="M5.5 14.0537L5.5 10" stroke="#8DAAFF" stroke-linecap="round"/>
<path d="M18.5 23C20.9853 23 23 20.9853 23 18.5C23 16.0147 20.9853 14 18.5 14C16.0147 14 14 16.0147 14 18.5C14 20.9853 16.0147 23 18.5 23Z" fill="url(#paint0_linear_366_96964)"/>
<path d="M20 18.4182C20.0992 18.2837 20.0013 18.0955 19.8321 18.0955H19.1729C19.052 18.0955 18.9568 17.9943 18.9664 17.876L19.1472 15.6351C19.1637 15.4302 18.8956 15.3333 18.7728 15.4998L16.5387 18.528C16.4395 18.6625 16.5374 18.8508 16.7066 18.8508H17.3664C17.4874 18.8508 17.5826 18.9519 17.573 19.0702L17.3922 21.311C17.3757 21.5159 17.6438 21.6128 17.7666 21.4463L20 18.4182Z" fill="white"/>
<path fill-rule="evenodd" clip-rule="evenodd" d="M2.00013 1C1.44785 1 1.00013 1.44772 1.00013 2V9C1.00013 9.55229 1.44785 10 2.00013 10H9.00013C9.55242 10 10.0001 9.55229 10.0001 9V2C10.0001 1.44772 9.55242 1 9.00014 1H2.00013ZM6.37631 14.5931C5.99638 13.9023 5.00381 13.9023 4.62388 14.5931L0.81515 21.5181C0.448601 22.1845 0.930763 23 1.69137 23H9.30882C10.0694 23 10.5516 22.1845 10.185 21.5181L6.37631 14.5931Z" fill="url(#paint1_linear_366_96964)"/>
<path d="M18.5 10C20.9853 10 23 7.98528 23 5.5C23 3.01472 20.9853 1 18.5 1C16.0147 1 14 3.01472 14 5.5C14 7.98528 16.0147 10 18.5 10Z" fill="#DEEFFF"/>
<path d="M7 11.8999L5.5 10.4999L4 11.8999" stroke="#8DAAFF" stroke-miterlimit="10" stroke-linecap="round" stroke-linejoin="round"/>
<path d="M12.5 8L13.9 6.5L12.5 5" stroke="#8DAAFF" stroke-miterlimit="10" stroke-linecap="round" stroke-linejoin="round"/>
<defs>
<linearGradient id="paint0_linear_366_96964" x1="18.0027" y1="13.6632" x2="18.0027" y2="23.3815" gradientUnits="userSpaceOnUse">
<stop stop-color="#0064FF"/>
<stop offset="1" stop-color="#8DAAFF"/>
</linearGradient>
<linearGradient id="paint1_linear_366_96964" x1="2" y1="4" x2="14.7526" y2="10.7583" gradientUnits="userSpaceOnUse">
<stop stop-color="#0064FF"/>
<stop offset="1" stop-color="#8DAAFF"/>
</linearGradient>
</defs>
</svg>
