<svg width="24" height="24" viewBox="0 0 24 24" fill="none" xmlns="http://www.w3.org/2000/svg">
<path d="M5.42802 14.7787C5.59985 14.6068 5.59985 14.3282 5.42802 14.1564L3.61789 12.3463C3.44606 12.1745 3.44606 11.8959 3.61789 11.724L5.42802 9.91391C5.59985 9.74208 5.59985 9.46348 5.42802 9.29165L4.80576 8.6694C4.63393 8.49757 4.35534 8.49757 4.18351 8.6694L1.12887 11.724C0.957042 11.8959 0.957042 12.1745 1.12887 12.3463L4.18351 15.4009C4.35534 15.5728 4.63393 15.5728 4.80576 15.4009L5.42802 14.7787Z" fill="#8DAAFF"/>
<path d="M9.80075 14.7787C9.62892 14.6069 9.62892 14.3283 9.80075 14.1564L11.6109 12.3463C11.7827 12.1745 11.7827 11.8959 11.6109 11.7241L9.80075 9.91393C9.62892 9.7421 9.62892 9.46351 9.80075 9.29168L10.423 8.66943C10.5948 8.4976 10.8734 8.4976 11.0453 8.66943L14.0999 11.7241C14.2717 11.8959 14.2717 12.1745 14.0999 12.3463L11.0453 15.401C10.8734 15.5728 10.5948 15.5728 10.423 15.401L9.80075 14.7787Z" fill="#8DAAFF"/>
<path d="M6.58156 13.6786C6.7534 13.8504 7.03199 13.8504 7.20382 13.6786L9.2689 11.6135C9.44073 11.4417 9.44073 11.1631 9.2689 10.9913L8.64665 10.369C8.47482 10.1972 8.19622 10.1972 8.02439 10.369L5.95931 12.4341C5.78748 12.6059 5.78748 12.8845 5.95931 13.0563L6.58156 13.6786Z" fill="#8DAAFF"/>
<path d="M10.3847 1C10.3179 1 10.2497 1.01233 10.198 1.05446C10.0989 1.13514 10.0356 1.2581 10.0356 1.39585V4.45201C10.0356 4.65222 9.9 4.82587 9.7088 4.88526C9.36572 4.99183 9.03314 5.1225 8.713 5.27531C8.53782 5.35892 8.3275 5.32829 8.19073 5.19054L6.08314 3.06773C5.91106 2.8944 5.63074 2.8944 5.45865 3.06773L4.48113 4.05231C4.31035 4.22432 4.31085 4.50205 4.48225 4.67344L8.53546 8.72665C8.70677 8.89796 8.98305 8.89656 9.17141 8.74419C9.91236 8.14485 10.8558 7.78587 11.8831 7.78587C14.2659 7.78587 16.1976 9.71719 16.1976 12.0996C16.1976 14.482 14.2659 16.4133 11.8831 16.4133C10.8104 16.4133 9.82907 16.0219 9.0743 15.3741C8.88622 15.2126 8.6021 15.2067 8.42684 15.382L4.37241 19.4364C4.20102 19.6078 4.20052 19.8855 4.37129 20.0575L5.41408 21.1079C5.58616 21.2812 5.86649 21.2812 6.03857 21.1079L8.12602 19.0053C8.26388 18.8665 8.47628 18.8366 8.65209 18.9225C8.99089 19.088 9.34391 19.2286 9.7088 19.3419C9.9 19.4013 10.0356 19.575 10.0356 19.7752V22.7007C10.0356 22.7478 10.043 22.7932 10.0567 22.8358C10.0943 22.9523 10.2226 23 10.345 23H13.7309C13.8533 23 13.9816 22.9523 14.0192 22.8358C14.0329 22.7932 14.0403 22.7478 14.0403 22.7007V19.7011C14.0403 19.5061 14.1691 19.3356 14.3536 19.2722C14.7591 19.1326 15.1489 18.9591 15.5199 18.755C15.6986 18.6566 15.9223 18.6823 16.066 18.8271L18.2015 20.978C18.3736 21.1513 18.6539 21.1513 18.826 20.978L21.0377 18.7503C21.208 18.5787 21.208 18.3019 21.0377 18.1303L18.7949 15.8713C18.6596 15.735 18.6295 15.5274 18.7114 15.3537C18.8698 15.0177 19.0043 14.6681 19.1128 14.307C19.1708 14.1139 19.3453 13.9764 19.547 13.9764H22.5888C22.8318 13.9764 23.0288 13.7794 23.0288 13.5364V10.3827C23.0288 10.1397 22.8318 9.94274 22.5888 9.94274H19.4478C19.2531 9.94274 19.0827 9.81425 19.0192 9.63014C18.9224 9.34958 18.8097 9.07653 18.6821 8.81209C18.598 8.63781 18.6274 8.42809 18.7638 8.29076L20.9931 6.0453C21.1635 5.87373 21.1635 5.59686 20.9931 5.42529L18.7814 3.1976C18.6093 3.02427 18.329 3.02427 18.1569 3.1976L16.0039 5.36617C15.8613 5.50985 15.6396 5.5364 15.4614 5.44036C15.108 5.24999 14.7378 5.08725 14.3535 4.95501C14.1691 4.89155 14.0403 4.72107 14.0403 4.52605V1.39585C14.0403 1.2581 13.977 1.13514 13.8779 1.05446C13.8262 1.01233 13.7579 1 13.6912 1H10.3847Z" fill="url(#paint0_linear_366_96970)"/>
<defs>
<linearGradient id="paint0_linear_366_96970" x1="14.6741" y1="0.176656" x2="-2.29855" y2="22.9682" gradientUnits="userSpaceOnUse">
<stop stop-color="#0064FF"/>
<stop offset="1" stop-color="#8DAAFF"/>
</linearGradient>
</defs>
</svg>
