<svg width="24" height="24" viewBox="0 0 24 24" fill="none" xmlns="http://www.w3.org/2000/svg">
<rect x="2" y="17" width="19" height="4" rx="1" fill="#DEEFFF"/>
<path d="M13 5H21C21.5523 5 22 5.44772 22 6V11C22 11.5523 21.5523 12 21 12H18.7857" stroke="#8DAAFF" stroke-linecap="round"/>
<path fill-rule="evenodd" clip-rule="evenodd" d="M3 3C2.44772 3 2 3.44772 2 4V6C2 6.55228 2.44771 7 3 7H12C12.5523 7 13 6.55228 13 6V4C13 3.44772 12.5523 3 12 3H3ZM6 10C5.44772 10 5 10.4477 5 11V13C5 13.5523 5.44772 14 6 14H18C18.5523 14 19 13.5523 19 13V11C19 10.4477 18.5523 10 18 10H6Z" fill="url(#paint0_linear_366_96639)"/>
<path d="M2 18C2 17.4477 2.44772 17 3 17H13V21H3C2.44771 21 2 20.5523 2 20V18Z" fill="url(#paint1_linear_366_96639)"/>
<path d="M15.4001 6.60012L14.0001 5.10012L15.4001 3.60012" stroke="#8DAAFF" stroke-miterlimit="10" stroke-linecap="round" stroke-linejoin="round"/>
<defs>
<linearGradient id="paint0_linear_366_96639" x1="6" y1="5" x2="23" y2="12" gradientUnits="userSpaceOnUse">
<stop stop-color="#0064FF"/>
<stop offset="1" stop-color="#8DAAFF"/>
</linearGradient>
<linearGradient id="paint1_linear_366_96639" x1="6.89221" y1="16.8503" x2="14" y2="25" gradientUnits="userSpaceOnUse">
<stop stop-color="#0064FF"/>
<stop offset="1" stop-color="#8DAAFF"/>
</linearGradient>
</defs>
</svg>
