<svg width="24" height="24" viewBox="0 0 24 24" fill="none" xmlns="http://www.w3.org/2000/svg">
<path d="M19.7197 3H4.35565C3.60251 3 3 3.60251 3 4.28033V19.7197C3 20.3975 3.60251 21 4.35565 21H19.7197C20.4728 21 21.0753 20.3975 21.0753 19.7197V4.28033C21.0753 3.60251 20.4728 3 19.7197 3ZM8.34728 18.364H5.7113V9.77824H8.34728V18.364ZM7.06695 8.57322C6.23849 8.57322 5.48536 7.8954 5.48536 6.99163C5.48536 6.08787 6.16318 5.41004 7.06695 5.41004C7.8954 5.41004 8.64854 6.08787 8.64854 6.99163C8.64854 7.8954 7.8954 8.57322 7.06695 8.57322ZM18.4393 18.2887H15.8033V14.0711C15.8033 13.0921 15.8033 11.7364 14.3724 11.7364C12.9414 11.7364 12.7908 12.8661 12.7908 13.9205V18.2134H10.1548V9.77824H12.6402V10.9079H12.7155C13.092 10.2301 13.9958 9.47699 15.2761 9.47699C17.9874 9.47699 18.5146 11.2845 18.5146 13.6192V18.2887H18.4393Z" fill="#A8A8AA"/>
</svg>
