<svg width="86" height="24" viewBox="0 0 86 24" fill="none" xmlns="http://www.w3.org/2000/svg">
<path d="M51.2642 18.7329C50.2713 18.7329 49.3391 18.2475 48.7434 17.376L43.4371 9.70883C43.1282 9.26204 42.6814 9.35581 42.549 9.39994C42.4166 9.43855 41.9919 9.61506 41.9919 10.1556V18.7329H39.6973V10.1556C39.6973 8.77112 40.5522 7.61277 41.8761 7.20459C43.1999 6.79642 44.5568 7.27079 45.3401 8.4181L50.6464 16.0852C50.9498 16.532 51.4021 16.4383 51.5345 16.3941C51.6668 16.3555 52.0916 16.179 52.0916 15.6385V7.05566H54.3862V15.6385C54.3862 17.023 53.5312 18.1813 52.2074 18.5895C51.893 18.6888 51.5731 18.7329 51.2642 18.7329Z" fill="white"/>
<path d="M60.1462 9.35029H70.1907V7.05566H60.3283C58.3039 7.05566 56.6602 8.69941 56.6602 10.7238V15.0648C56.6602 17.0891 58.3039 18.7329 60.3283 18.7329H70.1907V16.4383H60.1462C59.4898 16.4383 58.9548 15.9032 58.9548 15.2468V14.1436H67.7637V11.849H58.9548V10.5472C58.9548 9.88534 59.4898 9.35029 60.1462 9.35029Z" fill="white"/>
<path d="M82.4515 18.7329H73.1351V16.4383H82.4184C83.0527 16.4383 83.6429 15.986 83.6981 15.3516C83.7643 14.6401 83.2016 14.0444 82.5066 14.0444H76.0861C74.31 14.0444 72.7269 12.7702 72.5007 11.0106C72.2249 8.88144 73.8852 7.05566 75.9647 7.05566H84.8564V9.35029H76.0365C75.4076 9.35029 74.8395 9.79708 74.7733 10.4204C74.7016 11.1375 75.2642 11.7442 75.9647 11.7442H82.5066C84.7958 11.7442 86.5719 13.9506 85.8272 16.35C85.3749 17.7952 83.9628 18.7329 82.4515 18.7329Z" fill="white"/>
<path d="M0 11.59C0 11.7168 0.00551593 11.8382 0.00551593 11.9595C0.0110319 12.0699 0.0110319 12.1802 0.0165478 12.2905C0.0330956 12.5277 0.0551593 12.7593 0.082739 12.9855C0.0937709 13.0738 0.104803 13.162 0.121351 13.2448C0.159962 13.5426 0.215121 13.835 0.281313 14.1163C0.308892 14.2321 0.336472 14.3479 0.364052 14.4583C0.424727 14.6789 0.485402 14.894 0.551593 15.1036C0.557109 15.1147 0.557109 15.1257 0.562625 15.1422C0.672944 15.4787 0.79981 15.8041 0.937709 16.1241C0.981836 16.2344 1.03148 16.3392 1.08112 16.444C1.17489 16.6481 1.2797 16.8467 1.39002 17.0452C1.39553 17.0563 1.40105 17.0728 1.41208 17.0894C1.46724 17.1831 1.51688 17.2769 1.57204 17.3652C1.6272 17.4644 1.68788 17.5637 1.75407 17.6575C1.81474 17.7568 1.88093 17.8506 1.94712 17.9498C2.13467 18.2312 2.33876 18.5014 2.55388 18.7662C2.55939 18.7772 2.56491 18.7883 2.58146 18.8048C2.72487 18.9758 2.86828 19.1413 3.01722 19.3068C3.09444 19.395 3.17718 19.4778 3.2544 19.555C3.32059 19.6212 3.38678 19.6874 3.45297 19.748C3.51917 19.8142 3.58536 19.8749 3.65706 19.9356C3.69016 19.9687 3.72325 19.9963 3.76187 20.0293C3.82254 20.0845 3.8777 20.1341 3.93838 20.1838C4.01008 20.2445 4.08179 20.2996 4.14798 20.3603C4.26382 20.4541 4.37965 20.5478 4.49548 20.6361C4.58374 20.7023 4.65545 20.7575 4.73819 20.8126C4.86505 20.9064 4.99744 21.0002 5.12982 21.0829C4.8816 20.5313 4.71061 19.9411 4.61684 19.3233C4.55616 18.8986 4.19762 18.5787 3.76187 18.5787H3.41436C3.33162 18.1594 3.2875 17.7347 3.27646 17.299V17.2934C3.27646 17.2273 3.2875 17.0121 3.2875 17.0121L4.08731 16.8687C4.47894 16.797 4.79886 16.5157 4.9147 16.1406C5.06363 15.6718 4.88712 15.1588 4.48445 14.872L3.73429 14.3479C3.93286 13.7798 4.19211 13.2448 4.51755 12.7483L5.72002 13.3109C6.05649 13.4654 6.45364 13.4654 6.77356 13.2778C7.27551 12.98 7.45202 12.3677 7.21484 11.8547L6.59154 10.5199C7.26448 10.0234 8.02017 9.63181 8.83652 9.36705L9.82388 11.0825C9.95626 11.3142 10.1824 11.4797 10.4472 11.5127C10.9436 11.5734 11.3628 11.1873 11.3628 10.7019V0.232666C5.08569 0.232666 0 5.31836 0 11.59Z" fill="white"/>
<path d="M18.3456 15.9588C18.3456 19.7427 15.3394 22.8261 11.5831 22.9419C11.5058 22.9475 11.4341 22.9475 11.3569 22.9475C11.2797 22.9475 11.208 22.9419 11.1307 22.9419C8.82509 22.8261 6.98828 20.9176 6.98828 18.5788C6.98828 16.1684 8.94644 14.2102 11.3569 14.2102C11.4452 14.2102 11.5334 14.2047 11.6272 14.1992C11.6713 14.1937 11.7154 14.1882 11.7596 14.1826C11.7651 14.1826 11.7761 14.1771 11.7871 14.1771C13.133 13.973 14.1645 12.8092 14.1645 11.4081C14.1645 10.5035 13.7288 9.69267 13.0613 9.17969C16.0951 9.93537 18.3456 12.6878 18.3456 15.9588Z" fill="white"/>
<path d="M31.348 6.82422H28.7941C25.4404 6.82422 22.7266 9.54357 22.7266 12.8917C22.7266 16.2454 25.4459 18.9593 28.7941 18.9593H31.348C34.7017 18.9593 37.4155 16.2399 37.4155 12.8917C37.4155 9.54357 34.7017 6.82422 31.348 6.82422ZM31.348 16.6646H28.7941C26.7091 16.6646 25.0212 14.9768 25.0212 12.8917C25.0212 10.8067 26.7091 9.11885 28.7941 9.11885H31.348C33.433 9.11885 35.1209 10.8067 35.1209 12.8917C35.1209 14.9768 33.433 16.6646 31.348 16.6646Z" fill="white"/>
</svg>
