<svg width="86" height="24" viewBox="0 0 86 24" fill="none" xmlns="http://www.w3.org/2000/svg">
<path d="M51.2652 18.7329C50.2723 18.7329 49.3401 18.2475 48.7444 17.376L43.438 9.70883C43.1292 9.26204 42.6824 9.35581 42.55 9.39994C42.4176 9.43855 41.9929 9.61506 41.9929 10.1556V18.7329H39.6982V10.1556C39.6982 8.77112 40.5532 7.61277 41.877 7.20459C43.2009 6.79642 44.5578 7.27079 45.341 8.4181L50.6474 16.0852C50.9507 16.532 51.403 16.4383 51.5354 16.3941C51.6678 16.3555 52.0925 16.179 52.0925 15.6385V7.05566H54.3872V15.6385C54.3872 17.023 53.5322 18.1813 52.2084 18.5895C51.894 18.6888 51.574 18.7329 51.2652 18.7329Z" fill="#16171A"/>
<path d="M60.1452 9.35029H70.1898V7.05566H60.3273C58.3029 7.05566 56.6592 8.69941 56.6592 10.7238V15.0648C56.6592 17.0891 58.3029 18.7329 60.3273 18.7329H70.1898V16.4383H60.1452C59.4889 16.4383 58.9538 15.9032 58.9538 15.2468V14.1436H67.7627V11.849H58.9538V10.5472C58.9538 9.88534 59.4889 9.35029 60.1452 9.35029Z" fill="#16171A"/>
<path d="M82.4525 18.7329H73.136V16.4383H82.4194C83.0537 16.4383 83.6439 15.986 83.6991 15.3516C83.7653 14.6401 83.2026 14.0444 82.5076 14.0444H76.0871C74.3109 14.0444 72.7279 12.7702 72.5017 11.0106C72.2259 8.88144 73.8862 7.05566 75.9657 7.05566H84.8574V9.35029H76.0374C75.4086 9.35029 74.8405 9.79708 74.7743 10.4204C74.7026 11.1375 75.2652 11.7442 75.9657 11.7442H82.5076C84.7967 11.7442 86.5729 13.9506 85.8282 16.35C85.3759 17.7952 83.9638 18.7329 82.4525 18.7329Z" fill="#16171A"/>
<path d="M0 11.5897C0 11.7166 0.00551593 11.8379 0.00551593 11.9593C0.0110319 12.0696 0.0110319 12.1799 0.0165478 12.2903C0.0330956 12.5274 0.0551593 12.7591 0.082739 12.9853C0.0937709 13.0735 0.104803 13.1618 0.121351 13.2445C0.159962 13.5424 0.215121 13.8347 0.281313 14.116C0.308892 14.2319 0.336472 14.3477 0.364052 14.458C0.424727 14.6786 0.485402 14.8938 0.551593 15.1034C0.557109 15.1144 0.557109 15.1254 0.562625 15.142C0.672944 15.4785 0.79981 15.8039 0.937709 16.1238C0.981836 16.2341 1.03148 16.3389 1.08112 16.4437C1.17489 16.6478 1.2797 16.8464 1.39002 17.045C1.39553 17.056 1.40105 17.0726 1.41208 17.0891C1.46724 17.1829 1.51688 17.2767 1.57204 17.3649C1.6272 17.4642 1.68788 17.5635 1.75407 17.6573C1.81474 17.7565 1.88093 17.8503 1.94712 17.9496C2.13467 18.2309 2.33876 18.5012 2.55388 18.766C2.55939 18.777 2.56491 18.788 2.58146 18.8046C2.72487 18.9756 2.86828 19.141 3.01722 19.3065C3.09444 19.3948 3.17718 19.4775 3.2544 19.5547C3.32059 19.6209 3.38678 19.6871 3.45297 19.7478C3.51917 19.814 3.58536 19.8747 3.65706 19.9353C3.69016 19.9684 3.72325 19.996 3.76187 20.0291C3.82254 20.0843 3.8777 20.1339 3.93838 20.1835C4.01008 20.2442 4.08179 20.2994 4.14798 20.3601C4.26382 20.4538 4.37965 20.5476 4.49548 20.6359C4.58374 20.702 4.65545 20.7572 4.73819 20.8124C4.86505 20.9061 4.99744 20.9999 5.12982 21.0826C4.8816 20.5311 4.71061 19.9408 4.61684 19.3231C4.55616 18.8983 4.19762 18.5784 3.76187 18.5784H3.41436C3.33162 18.1592 3.2875 17.7345 3.27646 17.2987V17.2932C3.27646 17.227 3.2875 17.0119 3.2875 17.0119L4.08731 16.8685C4.47894 16.7968 4.79886 16.5155 4.9147 16.1404C5.06363 15.6715 4.88712 15.1585 4.48445 14.8717L3.73429 14.3477C3.93286 13.7796 4.19211 13.2445 4.51755 12.7481L5.72002 13.3107C6.05649 13.4651 6.45364 13.4651 6.77356 13.2776C7.27551 12.9797 7.45202 12.3675 7.21484 11.8545L6.59154 10.5196C7.26448 10.0232 8.02017 9.63157 8.83652 9.36681L9.82388 11.0823C9.95626 11.3139 10.1824 11.4794 10.4472 11.5125C10.9436 11.5732 11.3628 11.1871 11.3628 10.7017V0.232422C5.08569 0.232422 0 5.31811 0 11.5897Z" fill="#0064FF"/>
<path d="M18.3456 15.9583C18.3456 19.7422 15.3394 22.8256 11.5831 22.9414C11.5058 22.947 11.4341 22.947 11.3569 22.947C11.2797 22.947 11.208 22.9414 11.1307 22.9414C8.82509 22.8256 6.98828 20.9171 6.98828 18.5783C6.98828 16.1679 8.94644 14.2097 11.3569 14.2097C11.4452 14.2097 11.5334 14.2042 11.6272 14.1987C11.6713 14.1932 11.7154 14.1877 11.7596 14.1822C11.7651 14.1822 11.7761 14.1766 11.7871 14.1766C13.133 13.9725 14.1645 12.8087 14.1645 11.4076C14.1645 10.503 13.7288 9.69218 13.0613 9.1792C16.0951 9.93488 18.3456 12.6873 18.3456 15.9583Z" fill="#0064FF"/>
<path d="M31.347 6.82422H28.7931C25.4394 6.82422 22.7256 9.54357 22.7256 12.8917C22.7256 16.2454 25.4449 18.9593 28.7931 18.9593H31.347C34.7007 18.9593 37.4145 16.2399 37.4145 12.8917C37.4145 9.54357 34.7007 6.82422 31.347 6.82422ZM31.347 16.6646H28.7931C26.7081 16.6646 25.0202 14.9768 25.0202 12.8917C25.0202 10.8067 26.7081 9.11885 28.7931 9.11885H31.347C33.432 9.11885 35.1199 10.8067 35.1199 12.8917C35.1199 14.9768 33.432 16.6646 31.347 16.6646Z" fill="#16171A"/>
</svg>
