<svg width="252" height="45" viewBox="0 0 252 45" fill="none" xmlns="http://www.w3.org/2000/svg">
<path d="M102.114 36.6514C100.145 36.6514 98.2964 35.6897 97.1151 33.9632L86.5933 18.7738C85.9918 17.8886 85.0949 18.0744 84.8324 18.1618C84.5699 18.2383 83.7277 18.588 83.7277 19.6589V36.6514H79.1777V19.6589C79.1777 16.9161 80.873 14.6213 83.498 13.8126C86.123 13.004 88.8136 13.9438 90.3667 16.2167L100.889 31.4061C101.49 32.2913 102.387 32.1055 102.649 32.0181C102.912 31.9416 103.754 31.5919 103.754 30.521V13.5176H108.304V30.521C108.304 33.2638 106.609 35.5586 103.984 36.3673C103.36 36.564 102.726 36.6514 102.114 36.6514Z" fill="black"/>
<path d="M119.733 18.0635H139.65V13.5176H120.094C116.08 13.5176 112.82 16.774 112.82 20.7845V29.3845C112.82 33.3949 116.08 36.6514 120.094 36.6514H139.65V32.1055H119.733C118.431 32.1055 117.37 31.0455 117.37 29.7451V27.5596H134.837V23.0137H117.37V20.4348C117.37 19.1344 118.431 18.0744 119.733 18.0744V18.0635Z" fill="black"/>
<path d="M163.953 36.6514H145.479V32.1055H163.887C165.145 32.1055 166.315 31.2094 166.425 29.9527C166.556 28.5431 165.44 27.3629 164.062 27.3629H151.331C147.809 27.3629 144.67 24.8386 144.222 21.3527C143.675 17.1346 146.967 13.5176 151.09 13.5176H168.722V18.0635H151.233C149.986 18.0635 148.859 18.9486 148.728 20.1834C148.586 21.604 149.701 22.8061 151.09 22.8061H164.062C168.601 22.8061 172.123 27.1771 170.647 31.9306C169.75 34.7937 166.961 36.6514 163.953 36.6514Z" fill="black"/>
<path d="M0.471092 22.5C0.471092 22.7513 0.471092 22.9917 0.48203 23.2322C0.48203 23.4507 0.492968 23.6693 0.503905 23.8878C0.536717 24.3577 0.580468 24.8167 0.635155 25.2647C0.65703 25.4395 0.678905 25.6144 0.711717 25.7783C0.788279 26.3684 0.897652 26.9475 1.0289 27.5049C1.08359 27.7343 1.13828 27.9638 1.19296 28.1824C1.31327 28.6195 1.43359 29.0457 1.56484 29.4609C1.56484 29.4828 1.57577 29.5046 1.58671 29.5374C1.80546 30.204 2.05702 30.8487 2.33046 31.4825C2.41796 31.7011 2.51639 31.9087 2.61483 32.1163C2.80077 32.5206 3.00858 32.914 3.22733 33.3074C3.22733 33.3293 3.2492 33.3621 3.27108 33.3948C3.38045 33.5806 3.47889 33.7664 3.58826 33.9412C3.69763 34.1379 3.81795 34.3346 3.9492 34.5204C4.06951 34.7171 4.20076 34.9029 4.33201 35.0996C4.70388 35.6569 5.10856 36.1923 5.53512 36.7169C5.53512 36.7387 5.557 36.7606 5.58981 36.7933C5.87418 37.1321 6.15856 37.4599 6.45387 37.7878C6.60699 37.9626 6.77105 38.1265 6.92418 38.2795C7.05543 38.4106 7.18668 38.5418 7.31792 38.662C7.44917 38.7931 7.58042 38.9133 7.72261 39.0335C7.78824 39.0991 7.85386 39.1537 7.93042 39.2193C8.05073 39.3286 8.16011 39.4269 8.28042 39.5252C8.42261 39.6455 8.56479 39.7547 8.69604 39.8749C8.92573 40.0607 9.15541 40.2465 9.3851 40.4213C9.5601 40.5525 9.70228 40.6617 9.86635 40.771C10.1179 40.9568 10.3804 41.1425 10.6429 41.3065C10.1507 40.2137 9.81166 39.0444 9.62572 37.8205C9.50541 36.9791 8.79448 36.3453 7.93042 36.3453H7.20855C7.04449 35.5148 6.95699 34.6734 6.93511 33.8101C6.93511 33.679 6.95699 33.2419 6.95699 33.2419L8.54292 32.9577C9.31948 32.8157 9.95385 32.2584 10.1835 31.5153C10.4788 30.5864 10.1288 29.5702 9.33041 29.0019L7.84292 27.9638C8.23667 26.8383 8.75073 25.7783 9.39604 24.7948L11.7804 25.9094C12.4476 26.2154 13.2351 26.2154 13.8694 25.8439C14.8648 25.2538 15.2147 24.0408 14.7444 23.0245L13.5085 20.38C14.8429 19.3966 16.3413 18.6207 17.96 18.0962L19.9178 21.4947C20.1803 21.9536 20.6288 22.2814 21.1538 22.347C22.1381 22.4672 22.9694 21.7023 22.9694 20.7407V0C10.5335 0 0.449219 10.0753 0.449219 22.5H0.471092Z" fill="#0064FF"/>
<path d="M36.8483 31.1555C36.8483 38.6518 30.8874 44.7604 23.439 44.9898C23.2859 44.9898 23.1437 45.0008 22.9906 45.0008C22.8374 45.0008 22.6953 45.0008 22.5421 44.9898C17.9703 44.7604 14.3281 40.9794 14.3281 36.3461C14.3281 31.7128 18.2109 27.6914 22.9906 27.6914C23.1656 27.6914 23.3406 27.6914 23.5265 27.6695C23.614 27.6695 23.7015 27.6477 23.789 27.6368C23.7999 27.6368 23.8218 27.6368 23.8437 27.6368C26.5124 27.2324 28.5577 24.9267 28.5577 22.1511C28.5577 20.359 27.6937 18.7526 26.3702 17.7363C32.3968 19.2334 36.8592 24.6754 36.8592 31.1664L36.8483 31.1555Z" fill="#0064FF"/>
<path d="M62.6284 13.0586H57.5644C50.9144 13.0586 45.5332 18.4459 45.5332 25.079C45.5332 31.7121 50.9254 37.0994 57.5644 37.0994H62.6284C69.2784 37.0994 74.6596 31.7121 74.6596 25.079C74.6596 18.4459 69.2674 13.0586 62.6284 13.0586ZM62.6284 32.5535H57.5644C53.43 32.5535 50.0832 29.2096 50.0832 25.079C50.0832 20.9483 53.43 17.6045 57.5644 17.6045H62.6284C66.7628 17.6045 70.1096 20.9483 70.1096 25.079C70.1096 29.2096 66.7628 32.5535 62.6284 32.5535Z" fill="black"/>
<path d="M177.32 37.14V32.7598H181.454V37.14H177.32Z" fill="black"/>
<path d="M195.419 37.5155C193.728 37.5155 192.203 37.1296 190.846 36.3578C189.51 35.5652 188.456 34.5014 187.684 33.1665C186.911 31.8107 186.525 30.2881 186.525 28.5985C186.525 26.909 186.911 25.3968 187.684 24.0618C188.456 22.7269 189.51 21.6735 190.846 20.9018C192.203 20.13 193.728 19.7441 195.419 19.7441C196.629 19.7441 197.757 19.9632 198.801 20.4012C199.844 20.8183 200.742 21.4024 201.494 22.1533C202.266 22.8833 202.819 23.7594 203.154 24.7814L199.552 26.3458C199.239 25.4906 198.707 24.8023 197.955 24.2808C197.224 23.7594 196.379 23.4987 195.419 23.4987C194.521 23.4987 193.717 23.7177 193.007 24.1557C192.318 24.5937 191.775 25.1986 191.379 25.9704C190.982 26.7421 190.784 27.6286 190.784 28.6298C190.784 29.631 190.982 30.5175 191.379 31.2893C191.775 32.061 192.318 32.6659 193.007 33.1039C193.717 33.542 194.521 33.761 195.419 33.761C196.4 33.761 197.256 33.5002 197.986 32.9788C198.717 32.4573 199.239 31.7586 199.552 30.8825L203.154 32.5095C202.819 33.469 202.277 34.3346 201.525 35.1063C200.774 35.8572 199.876 36.4517 198.832 36.8897C197.788 37.3069 196.65 37.5155 195.419 37.5155Z" fill="black"/>
<path d="M213.648 37.5155C211.978 37.5155 210.454 37.1296 209.076 36.3578C207.719 35.5861 206.633 34.5327 205.819 33.1978C205.026 31.8629 204.629 30.3402 204.629 28.6298C204.629 26.9194 205.026 25.3968 205.819 24.0618C206.633 22.7269 207.719 21.6735 209.076 20.9018C210.433 20.13 211.957 19.7441 213.648 19.7441C215.318 19.7441 216.832 20.13 218.189 20.9018C219.546 21.6735 220.621 22.7269 221.414 24.0618C222.229 25.3759 222.636 26.8986 222.636 28.6298C222.636 30.3402 222.229 31.8629 221.414 33.1978C220.6 34.5327 219.515 35.5861 218.158 36.3578C216.801 37.1296 215.297 37.5155 213.648 37.5155ZM213.648 33.761C214.567 33.761 215.371 33.542 216.059 33.1039C216.769 32.6659 217.323 32.061 217.719 31.2893C218.137 30.4966 218.346 29.6102 218.346 28.6298C218.346 27.6286 218.137 26.7526 217.719 26.0017C217.323 25.2299 216.769 24.625 216.059 24.187C215.371 23.7281 214.567 23.4987 213.648 23.4987C212.709 23.4987 211.884 23.7281 211.174 24.187C210.464 24.625 209.901 25.2299 209.483 26.0017C209.087 26.7526 208.888 27.6286 208.888 28.6298C208.888 29.6102 209.087 30.4966 209.483 31.2893C209.901 32.061 210.464 32.6659 211.174 33.1039C211.884 33.542 212.709 33.761 213.648 33.761Z" fill="black"/>
<path d="M225.747 37.14V20.1196H229.599V24.0618L229.16 23.4048C229.473 22.1741 230.1 21.2564 231.039 20.6515C231.979 20.0466 233.085 19.7441 234.359 19.7441C235.757 19.7441 236.989 20.1092 238.054 20.8392C239.119 21.5692 239.807 22.5287 240.121 23.7177L238.962 23.8115C239.484 22.4557 240.267 21.4441 241.311 20.7766C242.354 20.0883 243.555 19.7441 244.912 19.7441C246.123 19.7441 247.198 20.0153 248.137 20.5576C249.098 21.0999 249.849 21.8613 250.392 22.8416C250.935 23.8011 251.206 24.917 251.206 26.1894V37.14H247.104V27.1593C247.104 26.4084 246.968 25.7618 246.697 25.2195C246.426 24.6771 246.05 24.26 245.57 23.968C245.089 23.6551 244.505 23.4987 243.816 23.4987C243.169 23.4987 242.595 23.6551 242.094 23.968C241.592 24.26 241.206 24.6771 240.935 25.2195C240.663 25.7618 240.528 26.4084 240.528 27.1593V37.14H236.425V27.1593C236.425 26.4084 236.29 25.7618 236.018 25.2195C235.747 24.6771 235.361 24.26 234.86 23.968C234.379 23.6551 233.805 23.4987 233.137 23.4987C232.49 23.4987 231.916 23.6551 231.415 23.968C230.914 24.26 230.528 24.6771 230.256 25.2195C229.985 25.7618 229.849 26.4084 229.849 27.1593V37.14H225.747Z" fill="black"/>
</svg>
