<svg width="134" height="24" viewBox="0 0 134 24" fill="none" xmlns="http://www.w3.org/2000/svg">
<g id="Group 16415">
<g id="Group 2">
<path id="Vector" d="M54.2529 19.547C53.2023 19.547 52.2159 19.0341 51.5855 18.1133L45.9706 10.0123C45.6495 9.54021 45.1709 9.63929 45.0308 9.68592C44.8907 9.72671 44.4413 9.91321 44.4413 10.4844V19.547H42.0132V10.4844C42.0132 9.02151 42.9179 7.79762 44.3187 7.36634C45.7196 6.93507 47.1554 7.43628 47.9842 8.64852L53.5992 16.7495C53.9202 17.2216 54.3989 17.1225 54.5389 17.0759C54.679 17.0351 55.1285 16.8486 55.1285 16.2775V7.20898H57.5566V16.2775C57.5566 17.7403 56.6519 18.9642 55.251 19.3955C54.9183 19.5004 54.5798 19.547 54.2529 19.547Z" fill="black"/>
<path id="Vector_2" d="M63.656 9.63346H74.2848V7.20898H63.8486C61.7065 7.20898 59.9672 8.94575 59.9672 11.0847V15.6713C59.9672 17.8102 61.7065 19.547 63.8486 19.547H74.2848V17.1225H63.656C62.9614 17.1225 62.3953 16.5572 62.3953 15.8637V14.6981H71.7166V12.2736H62.3953V10.8982C62.3953 10.2046 62.9614 9.63929 63.656 9.63929V9.63346Z" fill="black"/>
<path id="Vector_3" d="M87.2541 19.547H77.3958V17.1225H87.2191C87.8903 17.1225 88.5148 16.6446 88.5732 15.9744C88.6432 15.2226 88.0479 14.5932 87.3125 14.5932H80.5184C78.639 14.5932 76.9638 13.2469 76.7245 11.3877C76.4327 9.13808 78.1896 7.20898 80.39 7.20898H89.7989V9.63346H80.4659C79.8005 9.63346 79.1993 10.1055 79.1293 10.7641C79.0534 11.5218 79.6488 12.1628 80.39 12.1628H87.3125C89.7347 12.1628 91.6142 14.4941 90.8262 17.0293C90.3476 18.5562 88.8592 19.547 87.2541 19.547Z" fill="black"/>
<g id="Group">
<path id="Vector_4" d="M0.0117338 12C0.0117338 12.134 0.0117339 12.2623 0.0175707 12.3905C0.0175707 12.507 0.0234077 12.6236 0.0292445 12.7402C0.0467548 12.9908 0.0701025 13.2355 0.0992864 13.4745C0.11096 13.5677 0.122633 13.661 0.140144 13.7484C0.181001 14.0631 0.239368 14.372 0.30941 14.6693C0.338594 14.7916 0.367777 14.914 0.396961 15.0306C0.461166 15.2637 0.52537 15.491 0.595412 15.7125C0.595412 15.7241 0.601249 15.7358 0.607086 15.7533C0.723821 16.1088 0.858067 16.4526 1.00399 16.7907C1.05068 16.9072 1.10321 17.018 1.15574 17.1287C1.25497 17.3443 1.36587 17.5541 1.4826 17.764C1.4826 17.7756 1.49428 17.7931 1.50595 17.8106C1.56432 17.9097 1.61685 18.0087 1.67522 18.102C1.73358 18.2069 1.79779 18.3118 1.86783 18.4109C1.93203 18.5158 2.00208 18.6149 2.07212 18.7198C2.27057 19.017 2.48653 19.3026 2.71416 19.5823C2.71416 19.594 2.72584 19.6056 2.74335 19.6231C2.8951 19.8038 3.04686 19.9786 3.20445 20.1535C3.28617 20.2467 3.37372 20.3341 3.45544 20.4157C3.52548 20.4857 3.59552 20.5556 3.66556 20.6197C3.7356 20.6897 3.80564 20.7538 3.88152 20.8179C3.91654 20.8528 3.95156 20.882 3.99242 20.9169C4.05662 20.9752 4.11499 21.0277 4.1792 21.0801C4.25507 21.1442 4.33095 21.2025 4.40099 21.2666C4.52357 21.3657 4.64614 21.4648 4.76871 21.558C4.8621 21.628 4.93798 21.6863 5.02553 21.7445C5.15977 21.8436 5.29986 21.9427 5.43994 22.0301C5.17729 21.4473 4.99635 20.8237 4.89712 20.171C4.83292 19.7222 4.45353 19.3842 3.99242 19.3842H3.60719C3.51964 18.9412 3.47294 18.4925 3.46127 18.0321C3.46127 17.9621 3.47295 17.729 3.47295 17.729L4.31928 17.5775C4.73369 17.5017 5.07222 17.2045 5.1948 16.8082C5.35239 16.3128 5.16561 15.7708 4.73953 15.4677L3.94573 14.914C4.15585 14.3137 4.43018 13.7484 4.77455 13.2239L6.04697 13.8184C6.40301 13.9815 6.82326 13.9815 7.16179 13.7834C7.69294 13.4687 7.87971 12.8218 7.62873 12.2797L6.96918 10.8694C7.68127 10.3448 8.4809 9.93103 9.34475 9.65129L10.3895 11.4638C10.5296 11.7086 10.7689 11.8834 11.0491 11.9184C11.5744 11.9825 12.018 11.5745 12.018 11.0617V0C5.38157 0 6.10352e-05 5.37348 6.10352e-05 12H0.0117338Z" fill="#0064FF"/>
<path id="Vector_5" d="M19.4247 16.6159C19.4247 20.6139 16.2437 23.8718 12.2689 23.9942C12.1871 23.9942 12.1113 24 12.0295 24C11.9478 24 11.872 24 11.7902 23.9942C9.35046 23.8718 7.40681 21.8553 7.40681 19.3842C7.40681 16.9131 9.47887 14.7684 12.0295 14.7684C12.1229 14.7684 12.2163 14.7684 12.3155 14.7567C12.3622 14.7567 12.4089 14.745 12.4556 14.7392C12.4615 14.7392 12.4731 14.7392 12.4848 14.7392C13.909 14.5236 15.0005 13.2939 15.0005 11.8135C15.0005 10.8577 14.5394 10.001 13.8331 9.45898C17.0492 10.2574 19.4306 13.1598 19.4306 16.6217L19.4247 16.6159Z" fill="#0064FF"/>
</g>
<path id="Vector_6" d="M33.1822 6.96484H30.4798C26.931 6.96484 24.0593 9.83808 24.0593 13.3757C24.0593 16.9134 26.9368 19.7866 30.4798 19.7866H33.1822C36.7309 19.7866 39.6026 16.9134 39.6026 13.3757C39.6026 9.83808 36.7251 6.96484 33.1822 6.96484ZM33.1822 17.3621H30.4798C28.2735 17.3621 26.4874 15.5787 26.4874 13.3757C26.4874 11.1727 28.2735 9.38932 30.4798 9.38932H33.1822C35.3885 9.38932 37.1745 11.1727 37.1745 13.3757C37.1745 15.5787 35.3885 17.3621 33.1822 17.3621Z" fill="black"/>
</g>
<g id=".com">
<path d="M94.3873 19.8091V17.4729H96.5933V19.8091H94.3873Z" fill="black"/>
<path d="M104.045 20.0093C103.143 20.0093 102.33 19.8035 101.606 19.3919C100.893 18.9692 100.33 18.4018 99.9177 17.6898C99.5055 16.9668 99.2994 16.1547 99.2994 15.2536C99.2994 14.3525 99.5055 13.546 99.9177 12.834C100.33 12.122 100.893 11.5603 101.606 11.1487C102.33 10.7371 103.143 10.5312 104.045 10.5312C104.692 10.5312 105.293 10.6481 105.85 10.8817C106.407 11.1042 106.886 11.4156 107.288 11.8161C107.7 12.2055 107.995 12.6727 108.173 13.2178L106.251 14.0521C106.084 13.596 105.8 13.2289 105.399 12.9508C105.009 12.6727 104.558 12.5337 104.045 12.5337C103.566 12.5337 103.137 12.6505 102.759 12.8841C102.391 13.1177 102.101 13.4403 101.89 13.8519C101.678 14.2635 101.572 14.7363 101.572 15.2703C101.572 15.8042 101.678 16.277 101.89 16.6886C102.101 17.1002 102.391 17.4229 102.759 17.6565C103.137 17.8901 103.566 18.0069 104.045 18.0069C104.569 18.0069 105.026 17.8678 105.416 17.5897C105.806 17.3116 106.084 16.9389 106.251 16.4717L108.173 17.3394C107.995 17.8512 107.705 18.3128 107.304 18.7244C106.903 19.1249 106.424 19.4419 105.867 19.6756C105.31 19.8981 104.703 20.0093 104.045 20.0093Z" fill="black"/>
<path d="M113.774 20.0093C112.882 20.0093 112.069 19.8035 111.334 19.3919C110.61 18.9803 110.03 18.4185 109.596 17.7065C109.172 16.9946 108.961 16.1825 108.961 15.2703C108.961 14.3581 109.172 13.546 109.596 12.834C110.03 12.122 110.61 11.5603 111.334 11.1487C112.058 10.7371 112.871 10.5312 113.774 10.5312C114.665 10.5312 115.473 10.7371 116.197 11.1487C116.921 11.5603 117.495 12.122 117.918 12.834C118.353 13.5349 118.57 14.3469 118.57 15.2703C118.57 16.1825 118.353 16.9946 117.918 17.7065C117.484 18.4185 116.904 18.9803 116.18 19.3919C115.456 19.8035 114.654 20.0093 113.774 20.0093ZM113.774 18.0069C114.264 18.0069 114.693 17.8901 115.061 17.6565C115.439 17.4229 115.735 17.1002 115.946 16.6886C116.169 16.2659 116.281 15.7931 116.281 15.2703C116.281 14.7363 116.169 14.2691 115.946 13.8686C115.735 13.457 115.439 13.1344 115.061 12.9008C114.693 12.656 114.264 12.5337 113.774 12.5337C113.272 12.5337 112.832 12.656 112.454 12.9008C112.075 13.1344 111.774 13.457 111.551 13.8686C111.339 14.2691 111.234 14.7363 111.234 15.2703C111.234 15.7931 111.339 16.2659 111.551 16.6886C111.774 17.1002 112.075 17.4229 112.454 17.6565C112.832 17.8901 113.272 18.0069 113.774 18.0069Z" fill="black"/>
<path d="M120.23 19.8091V10.7315H122.286V12.834L122.052 12.4836C122.219 11.8273 122.553 11.3378 123.054 11.0152C123.556 10.6926 124.146 10.5312 124.826 10.5312C125.572 10.5312 126.23 10.7259 126.798 11.1153C127.366 11.5046 127.734 12.0164 127.901 12.6505L127.283 12.7005C127.561 11.9774 127.979 11.4379 128.536 11.0819C129.093 10.7148 129.734 10.5312 130.458 10.5312C131.104 10.5312 131.678 10.6759 132.179 10.9651C132.692 11.2543 133.093 11.6604 133.382 12.1832C133.672 12.695 133.817 13.2901 133.817 13.9687V19.8091H131.628V14.486C131.628 14.0855 131.555 13.7407 131.41 13.4514C131.265 13.1622 131.065 12.9397 130.809 12.784C130.552 12.6171 130.24 12.5337 129.873 12.5337C129.527 12.5337 129.221 12.6171 128.954 12.784C128.686 12.9397 128.48 13.1622 128.335 13.4514C128.191 13.7407 128.118 14.0855 128.118 14.486V19.8091H125.929V14.486C125.929 14.0855 125.856 13.7407 125.712 13.4514C125.567 13.1622 125.361 12.9397 125.093 12.784C124.837 12.6171 124.531 12.5337 124.174 12.5337C123.829 12.5337 123.522 12.6171 123.255 12.784C122.988 12.9397 122.782 13.1622 122.637 13.4514C122.492 13.7407 122.419 14.0855 122.419 14.486V19.8091H120.23Z" fill="black"/>
</g>
</g>
</svg>
