<svg width="134" height="24" viewBox="0 0 134 24" fill="none" xmlns="http://www.w3.org/2000/svg">
<g id="Group 16415">
<g id="Group 2">
<path id="Vector" d="M54.2524 19.547C53.2018 19.547 52.2154 19.0341 51.585 18.1133L45.97 10.0123C45.649 9.54021 45.1704 9.63929 45.0303 9.68592C44.8902 9.72671 44.4408 9.91321 44.4408 10.4844V19.547H42.0127V10.4844C42.0127 9.02151 42.9174 7.79762 44.3182 7.36634C45.719 6.93507 47.1549 7.43628 47.9837 8.64852L53.5987 16.7495C53.9197 17.2216 54.3983 17.1225 54.5384 17.0759C54.6785 17.0351 55.1279 16.8486 55.1279 16.2775V7.20898H57.556V16.2775C57.556 17.7403 56.6513 18.9642 55.2505 19.3955C54.9178 19.5004 54.5793 19.547 54.2524 19.547Z" fill="white"/>
<path id="Vector_2" d="M63.6556 9.63346H74.2844V7.20898H63.8483C61.7062 7.20898 59.9668 8.94575 59.9668 11.0847V15.6713C59.9668 17.8102 61.7062 19.547 63.8483 19.547H74.2844V17.1225H63.6556C62.9611 17.1225 62.3949 16.5572 62.3949 15.8637V14.6981H71.7162V12.2736H62.3949V10.8982C62.3949 10.2046 62.9611 9.63929 63.6556 9.63929V9.63346Z" fill="white"/>
<path id="Vector_3" d="M87.2537 19.547H77.3954V17.1225H87.2187C87.8899 17.1225 88.5145 16.6446 88.5728 15.9744C88.6429 15.2226 88.0475 14.5932 87.3121 14.5932H80.5181C78.6386 14.5932 76.9635 13.2469 76.7242 11.3877C76.4323 9.13808 78.1892 7.20898 80.3897 7.20898H89.7986V9.63346H80.4655C79.8002 9.63346 79.199 10.1055 79.1289 10.7641C79.0531 11.5218 79.6484 12.1628 80.3897 12.1628H87.3121C89.7344 12.1628 91.6138 14.4941 90.8258 17.0293C90.3472 18.5562 88.8588 19.547 87.2537 19.547Z" fill="white"/>
<g id="Group">
<path id="Vector_4" d="M0.0116727 12C0.0116727 12.134 0.0116728 12.2623 0.0175096 12.3905C0.0175096 12.507 0.0233467 12.6236 0.0291835 12.7402C0.0466938 12.9908 0.0700414 13.2355 0.0992253 13.4745C0.110899 13.5677 0.122572 13.661 0.140083 13.7484C0.18094 14.0631 0.239307 14.372 0.309349 14.6693C0.338533 14.7916 0.367716 14.914 0.3969 15.0306C0.461105 15.2637 0.525309 15.491 0.595351 15.7125C0.595351 15.7241 0.601188 15.7358 0.607025 15.7533C0.72376 16.1088 0.858006 16.4526 1.00393 16.7907C1.05062 16.9072 1.10315 17.018 1.15568 17.1287C1.25491 17.3443 1.36581 17.5541 1.48254 17.764C1.48254 17.7756 1.49422 17.7931 1.50589 17.8106C1.56426 17.9097 1.61679 18.0087 1.67516 18.102C1.73352 18.2069 1.79773 18.3118 1.86777 18.4109C1.93197 18.5158 2.00202 18.6149 2.07206 18.7198C2.27051 19.017 2.48647 19.3026 2.7141 19.5823C2.7141 19.594 2.72578 19.6056 2.74329 19.6231C2.89504 19.8038 3.0468 19.9786 3.20439 20.1535C3.28611 20.2467 3.37366 20.3341 3.45537 20.4157C3.52542 20.4857 3.59546 20.5556 3.6655 20.6197C3.73554 20.6897 3.80558 20.7538 3.88146 20.8179C3.91648 20.8528 3.9515 20.882 3.99236 20.9169C4.05656 20.9752 4.11493 21.0277 4.17914 21.0801C4.25501 21.1442 4.33089 21.2025 4.40093 21.2666C4.5235 21.3657 4.64608 21.4648 4.76865 21.558C4.86204 21.628 4.93792 21.6863 5.02547 21.7445C5.15971 21.8436 5.2998 21.9427 5.43988 22.0301C5.17722 21.4473 4.99628 20.8237 4.89706 20.171C4.83285 19.7222 4.45346 19.3842 3.99236 19.3842H3.60713C3.51958 18.9412 3.47288 18.4925 3.46121 18.0321C3.46121 17.9621 3.47288 17.729 3.47288 17.729L4.31922 17.5775C4.73363 17.5017 5.07216 17.2045 5.19474 16.8082C5.35233 16.3128 5.16555 15.7708 4.73947 15.4677L3.94566 14.914C4.15579 14.3137 4.43012 13.7484 4.77449 13.2239L6.0469 13.8184C6.40295 13.9815 6.8232 13.9815 7.16173 13.7834C7.69288 13.4687 7.87965 12.8218 7.62867 12.2797L6.96912 10.8694C7.6812 10.3448 8.48084 9.93103 9.34469 9.65129L10.3895 11.4638C10.5296 11.7086 10.7689 11.8834 11.049 11.9184C11.5743 11.9825 12.0179 11.5745 12.0179 11.0617V0C5.38151 0 0 5.37348 0 12H0.0116727Z" fill="white"/>
<path id="Vector_5" d="M19.4252 16.6159C19.4252 20.6139 16.2441 23.8718 12.2693 23.9942C12.1875 23.9942 12.1117 24 12.03 24C11.9482 24 11.8724 24 11.7906 23.9942C9.35087 23.8718 7.40723 21.8553 7.40723 19.3842C7.40723 16.9131 9.47928 14.7684 12.03 14.7684C12.1233 14.7684 12.2167 14.7684 12.316 14.7567C12.3627 14.7567 12.4093 14.745 12.456 14.7392C12.4619 14.7392 12.4736 14.7392 12.4852 14.7392C13.9094 14.5236 15.0009 13.2939 15.0009 11.8135C15.0009 10.8577 14.5398 10.001 13.8335 9.45898C17.0496 10.2574 19.431 13.1598 19.431 16.6217L19.4252 16.6159Z" fill="white"/>
</g>
<path id="Vector_6" d="M33.1825 6.96484H30.48C26.9313 6.96484 24.0596 9.83808 24.0596 13.3757C24.0596 16.9134 26.9371 19.7866 30.48 19.7866H33.1825C36.7312 19.7866 39.6029 16.9134 39.6029 13.3757C39.6029 9.83808 36.7254 6.96484 33.1825 6.96484ZM33.1825 17.3621H30.48C28.2737 17.3621 26.4877 15.5787 26.4877 13.3757C26.4877 11.1727 28.2737 9.38932 30.48 9.38932H33.1825C35.3888 9.38932 37.1748 11.1727 37.1748 13.3757C37.1748 15.5787 35.3888 17.3621 33.1825 17.3621Z" fill="white"/>
</g>
<g id=".com">
<path d="M94.3877 19.8091V17.4729H96.5936V19.8091H94.3877Z" fill="white"/>
<path d="M104.046 20.0093C103.143 20.0093 102.33 19.8035 101.606 19.3919C100.893 18.9692 100.33 18.4018 99.9181 17.6898C99.5059 16.9668 99.2997 16.1547 99.2997 15.2536C99.2997 14.3525 99.5059 13.546 99.9181 12.834C100.33 12.122 100.893 11.5603 101.606 11.1487C102.33 10.7371 103.143 10.5312 104.046 10.5312C104.692 10.5312 105.294 10.6481 105.851 10.8817C106.408 11.1042 106.887 11.4156 107.288 11.8161C107.7 12.2055 107.995 12.6727 108.174 13.2178L106.252 14.0521C106.085 13.596 105.801 13.2289 105.399 12.9508C105.01 12.6727 104.558 12.5337 104.046 12.5337C103.567 12.5337 103.138 12.6505 102.759 12.8841C102.391 13.1177 102.102 13.4403 101.89 13.8519C101.678 14.2635 101.573 14.7363 101.573 15.2703C101.573 15.8042 101.678 16.277 101.89 16.6886C102.102 17.1002 102.391 17.4229 102.759 17.6565C103.138 17.8901 103.567 18.0069 104.046 18.0069C104.569 18.0069 105.026 17.8678 105.416 17.5897C105.806 17.3116 106.085 16.9389 106.252 16.4717L108.174 17.3394C107.995 17.8512 107.706 18.3128 107.305 18.7244C106.904 19.1249 106.424 19.4419 105.867 19.6756C105.31 19.8981 104.703 20.0093 104.046 20.0093Z" fill="white"/>
<path d="M113.774 20.0093C112.883 20.0093 112.07 19.8035 111.334 19.3919C110.61 18.9803 110.031 18.4185 109.596 17.7065C109.173 16.9946 108.961 16.1825 108.961 15.2703C108.961 14.3581 109.173 13.546 109.596 12.834C110.031 12.122 110.61 11.5603 111.334 11.1487C112.058 10.7371 112.872 10.5312 113.774 10.5312C114.665 10.5312 115.473 10.7371 116.197 11.1487C116.921 11.5603 117.495 12.122 117.919 12.834C118.353 13.5349 118.57 14.3469 118.57 15.2703C118.57 16.1825 118.353 16.9946 117.919 17.7065C117.484 18.4185 116.905 18.9803 116.181 19.3919C115.456 19.8035 114.654 20.0093 113.774 20.0093ZM113.774 18.0069C114.264 18.0069 114.693 17.8901 115.061 17.6565C115.44 17.4229 115.735 17.1002 115.947 16.6886C116.169 16.2659 116.281 15.7931 116.281 15.2703C116.281 14.7363 116.169 14.2691 115.947 13.8686C115.735 13.457 115.44 13.1344 115.061 12.9008C114.693 12.656 114.264 12.5337 113.774 12.5337C113.273 12.5337 112.833 12.656 112.454 12.9008C112.075 13.1344 111.774 13.457 111.551 13.8686C111.34 14.2691 111.234 14.7363 111.234 15.2703C111.234 15.7931 111.34 16.2659 111.551 16.6886C111.774 17.1002 112.075 17.4229 112.454 17.6565C112.833 17.8901 113.273 18.0069 113.774 18.0069Z" fill="white"/>
<path d="M120.231 19.8091V10.7315H122.286V12.834L122.052 12.4836C122.219 11.8273 122.553 11.3378 123.055 11.0152C123.556 10.6926 124.147 10.5312 124.826 10.5312C125.573 10.5312 126.23 10.7259 126.798 11.1153C127.366 11.5046 127.734 12.0164 127.901 12.6505L127.283 12.7005C127.561 11.9774 127.979 11.4379 128.536 11.0819C129.093 10.7148 129.734 10.5312 130.458 10.5312C131.104 10.5312 131.678 10.6759 132.179 10.9651C132.692 11.2543 133.093 11.6604 133.383 12.1832C133.672 12.695 133.817 13.2901 133.817 13.9687V19.8091H131.628V14.486C131.628 14.0855 131.555 13.7407 131.411 13.4514C131.266 13.1622 131.065 12.9397 130.809 12.784C130.553 12.6171 130.241 12.5337 129.873 12.5337C129.528 12.5337 129.221 12.6171 128.954 12.784C128.687 12.9397 128.481 13.1622 128.336 13.4514C128.191 13.7407 128.118 14.0855 128.118 14.486V19.8091H125.929V14.486C125.929 14.0855 125.857 13.7407 125.712 13.4514C125.567 13.1622 125.361 12.9397 125.094 12.784C124.837 12.6171 124.531 12.5337 124.175 12.5337C123.829 12.5337 123.523 12.6171 123.255 12.784C122.988 12.9397 122.782 13.1622 122.637 13.4514C122.492 13.7407 122.42 14.0855 122.42 14.486V19.8091H120.231Z" fill="white"/>
</g>
</g>
</svg>
