<svg width="24" height="24" viewBox="0 0 24 24" fill="none" xmlns="http://www.w3.org/2000/svg">
<path fill-rule="evenodd" clip-rule="evenodd" d="M9.39206 9.58452C10.7534 8.22313 12.9607 8.22313 14.3221 9.58452C15.6835 10.9459 15.6835 13.1532 14.3221 14.5146C12.9607 15.876 10.7534 15.876 9.39206 14.5146L8.17154 13.294L6.95101 14.5146C5.58962 15.876 3.38237 15.876 2.02097 14.5146C0.659581 13.1532 0.659581 10.9459 2.02097 9.58453C3.38237 8.22314 5.58962 8.22314 6.95101 9.58453L8.17153 10.805L9.39206 9.58452ZM13.0776 10.829C12.4035 10.155 11.3106 10.155 10.6366 10.829L9.41605 12.0495L10.6366 13.2701C11.3106 13.9441 12.4035 13.9441 13.0776 13.2701C13.7517 12.596 13.7517 11.5031 13.0776 10.829ZM3.26548 13.2701C3.93955 13.9441 5.03243 13.9441 5.7065 13.2701L6.92702 12.0496L5.70651 10.829C5.03244 10.155 3.93955 10.155 3.26548 10.829C2.59141 11.5031 2.59141 12.596 3.26548 13.2701Z" fill="#8DAAFF"/>
<path d="M10.377 1C10.3103 1 10.242 1.01233 10.1903 1.05446C10.0912 1.13514 10.0279 1.2581 10.0279 1.39585V4.45201C10.0279 4.65222 9.89231 4.82587 9.70111 4.88526C9.35803 4.99183 9.02545 5.1225 8.70531 5.27531C8.53013 5.35892 8.31981 5.32829 8.18304 5.19054L6.07545 3.06773C5.90337 2.8944 5.62304 2.8944 5.45096 3.06773L4.47344 4.05231C4.30266 4.22432 4.30316 4.50205 4.47456 4.67344L8.52777 8.72665C8.69908 8.89796 8.97536 8.89656 9.16372 8.74419C9.90467 8.14485 10.8481 7.78587 11.8754 7.78587C14.2582 7.78587 16.1899 9.71719 16.1899 12.0996C16.1899 14.482 14.2582 16.4133 11.8754 16.4133C10.8027 16.4133 9.82138 16.0219 9.06661 15.3741C8.87853 15.2126 8.59441 15.2067 8.41915 15.382L4.36472 19.4364C4.19333 19.6078 4.19283 19.8855 4.3636 20.0575L5.40639 21.1079C5.57847 21.2812 5.8588 21.2812 6.03088 21.1079L8.11833 19.0053C8.25618 18.8665 8.46859 18.8366 8.6444 18.9225C8.9832 19.088 9.33622 19.2286 9.70111 19.3419C9.89231 19.4013 10.0279 19.575 10.0279 19.7752V22.7007C10.0279 22.7478 10.0353 22.7932 10.049 22.8358C10.0866 22.9523 10.2149 23 10.3373 23H13.7232C13.8456 23 13.9739 22.9523 14.0115 22.8358C14.0252 22.7932 14.0326 22.7478 14.0326 22.7007V19.7011C14.0326 19.5061 14.1615 19.3356 14.3459 19.2722C14.7514 19.1326 15.1413 18.9591 15.5122 18.755C15.6909 18.6566 15.9146 18.6823 16.0584 18.8271L18.1938 20.978C18.3659 21.1513 18.6462 21.1513 18.8183 20.978L21.03 18.7503C21.2003 18.5787 21.2003 18.3019 21.03 18.1303L18.7872 15.8713C18.6519 15.735 18.6218 15.5274 18.7037 15.3537C18.8621 15.0177 18.9966 14.6681 19.1051 14.307C19.1631 14.1139 19.3376 13.9764 19.5393 13.9764H22.5811C22.8241 13.9764 23.0211 13.7794 23.0211 13.5364V10.3827C23.0211 10.1397 22.8241 9.94274 22.5811 9.94274H19.4401C19.2454 9.94274 19.075 9.81425 19.0115 9.63014C18.9147 9.34958 18.802 9.07653 18.6744 8.81209C18.5903 8.63781 18.6197 8.42809 18.7561 8.29076L20.9854 6.0453C21.1558 5.87373 21.1558 5.59686 20.9854 5.42529L18.7737 3.1976C18.6016 3.02427 18.3213 3.02427 18.1492 3.1976L15.9962 5.36617C15.8536 5.50985 15.6319 5.5364 15.4537 5.44036C15.1003 5.24999 14.7301 5.08725 14.3459 4.95501C14.1614 4.89155 14.0326 4.72107 14.0326 4.52605V1.39585C14.0326 1.2581 13.9693 1.13514 13.8702 1.05446C13.8185 1.01233 13.7503 1 13.6835 1H10.377Z" fill="url(#paint0_linear_366_96976)"/>
<defs>
<linearGradient id="paint0_linear_366_96976" x1="14.6664" y1="0.176656" x2="-2.30624" y2="22.9682" gradientUnits="userSpaceOnUse">
<stop stop-color="#0064FF"/>
<stop offset="1" stop-color="#8DAAFF"/>
</linearGradient>
</defs>
</svg>
