<svg width="24" height="24" viewBox="0 0 24 24" fill="none" xmlns="http://www.w3.org/2000/svg">
<path d="M12 2C12 1.44771 11.5514 0.995281 11.0014 1.04542C9.17821 1.21161 7.41966 1.8309 5.88873 2.85383C4.07979 4.06253 2.66989 5.78049 1.83733 7.79048C1.00476 9.80047 0.786926 12.0122 1.21136 14.146C1.6358 16.2798 2.68345 18.2398 4.22183 19.7782C5.7602 21.3166 7.72021 22.3642 9.85401 22.7886C11.9878 23.2131 14.1995 22.9952 16.2095 22.1627C18.2195 21.3301 19.9375 19.9202 21.1462 18.1113C22.1691 16.5803 22.7884 14.8218 22.9546 12.9986C23.0047 12.4486 22.5523 12 22 12L19.4624 12C18.9101 12 18.4703 12.4504 18.3852 12.996C18.241 13.9201 17.8973 14.8061 17.3733 15.5903C16.6632 16.6531 15.6539 17.4814 14.4731 17.9705C13.2922 18.4596 11.9928 18.5876 10.7392 18.3382C9.48566 18.0889 8.33416 17.4734 7.43038 16.5696C6.5266 15.6658 5.91111 14.5143 5.66176 13.2608C5.4124 12.0072 5.54038 10.7078 6.0295 9.52694C6.51863 8.34609 7.34693 7.33679 8.40967 6.62669C9.19393 6.10267 10.0799 5.75895 11.004 5.6148C11.5496 5.52967 12 5.08987 12 4.53758L12 2Z" fill="url(#paint0_angular_366_96958)"/>
<path fill-rule="evenodd" clip-rule="evenodd" d="M13.1457 11.1166L12.7012 7.14833C12.6591 6.77192 12.3358 6.49043 11.9572 6.50045C11.5833 6.51034 11.2774 6.8015 11.2492 7.17447L10.9035 11.742C10.8954 11.8489 10.902 11.9532 10.9216 12.053C10.9233 12.6674 11.4501 13.1493 12.0626 13.0961L16.0927 12.7456C16.4354 12.7158 16.6984 12.4289 16.6984 12.0849C16.6984 11.7453 16.4419 11.4606 16.1041 11.4253L13.1457 11.1166Z" fill="#0064FF"/>
<defs>
<radialGradient id="paint0_angular_366_96958" cx="0" cy="0" r="1" gradientUnits="userSpaceOnUse" gradientTransform="translate(12 12) rotate(-180) scale(8.67606 8.67606)">
<stop offset="0.249532" stop-color="#0064FF"/>
<stop offset="0.494439" stop-color="#8DAAFF"/>
</radialGradient>
</defs>
</svg>
