<svg width="24" height="24" viewBox="0 0 24 24" fill="none" xmlns="http://www.w3.org/2000/svg">
<g clip-path="url(#clip0_368_97314)">
<rect x="1.19995" y="1.2002" width="21.6" height="21.6" rx="10.8" fill="url(#paint0_linear_368_97314)"/>
<path d="M5.84401 14.179C4.68267 13.0176 4.68267 11.1347 5.84401 9.97337V9.97337C7.00536 8.81202 8.88827 8.81202 10.0496 9.97337L12.1524 12.0762L10.0496 14.179C8.88827 15.3403 7.00536 15.3403 5.84401 14.179V14.179Z" stroke="#FBFBFD" stroke-width="1.5"/>
<path d="M18.3855 14.179C19.5468 13.0176 19.5468 11.1347 18.3855 9.97337V9.97337C17.2241 8.81202 15.3412 8.81202 14.1799 9.97337L12.0771 12.0762L14.1799 14.179C15.3412 15.3403 17.2241 15.3403 18.3855 14.179V14.179Z" stroke="#FBFBFD" stroke-width="1.5"/>
</g>
<defs>
<linearGradient id="paint0_linear_368_97314" x1="12.2274" y1="-0.00905737" x2="12.2274" y2="23.7683" gradientUnits="userSpaceOnUse">
<stop stop-color="#0064FF"/>
<stop offset="1" stop-color="#8DAAFF"/>
</linearGradient>
<clipPath id="clip0_368_97314">
<rect width="24" height="24" rx="3" fill="white"/>
</clipPath>
</defs>
</svg>
