<svg width="24" height="24" viewBox="0 0 24 24" fill="none" xmlns="http://www.w3.org/2000/svg">
<path d="M8.29091 20.2517C9.82649 20.2613 11.3487 19.966 12.7693 19.3828C14.1898 18.7996 15.4805 17.9402 16.5663 16.8543C17.6521 15.7685 18.5116 14.4779 19.0948 13.0573C19.678 11.6367 19.9733 10.1145 19.9636 8.57894V8.04258C20.7596 7.45938 21.4486 6.74273 22 5.92439C21.2505 6.25221 20.4574 6.46962 19.6455 6.56985C20.5063 6.05692 21.1522 5.24955 21.4636 4.29712C20.6614 4.77843 19.7817 5.11679 18.8636 5.29712C18.2454 4.63836 17.4273 4.20172 16.5359 4.05474C15.6445 3.90777 14.7295 4.05867 13.9325 4.48408C13.1355 4.90949 12.5009 5.58571 12.1269 6.4081C11.7529 7.23049 11.6604 8.15321 11.8636 9.03349C10.2328 8.95343 8.63701 8.53078 7.18032 7.79304C5.72364 7.05529 4.43867 6.01901 3.40909 4.75167C2.88993 5.65273 2.73257 6.71742 2.96887 7.73014C3.20518 8.74287 3.81748 9.62796 4.68182 10.2062C4.04419 10.1816 3.42132 10.0072 2.86364 9.69712V9.74258C2.85797 10.6842 3.1752 11.5994 3.76246 12.3355C4.34971 13.0717 5.17152 13.5843 6.09091 13.788C5.49785 13.9475 4.87663 13.9724 4.27273 13.8608C4.5389 14.6638 5.04698 15.3649 5.72731 15.8678C6.40765 16.3708 7.2269 16.6509 8.07273 16.6698C6.62656 17.834 4.82917 18.4747 2.97273 18.488C2.64723 18.4786 2.3225 18.4513 2 18.4062C3.87905 19.6034 6.06291 20.2346 8.29091 20.2244" fill="#A8A8AA"/>
</svg>
