<svg width="24" height="24" viewBox="0 0 24 24" fill="none" xmlns="http://www.w3.org/2000/svg">
<path d="M15 1H5.03848C3.93542 1 3.04061 1.89309 3.03849 2.99615L3.00386 20.9962C3.00173 22.1022 3.89778 23 5.00386 23L18.9629 23C20.0654 23 20.96 22.1078 20.9629 21.0053L21 7L15 1Z" fill="url(#paint0_linear_368_97346)"/>
<path d="M21 7L15 1L15 5C15 6.10457 15.8954 7 17 7L21 7Z" fill="#8DAAFF"/>
<path d="M15.3581 9.26384C15.1469 9.04747 14.8031 9.04747 14.5919 9.26384L11.0266 12.9255L9.30209 11.1585C9.09092 10.9421 8.74711 10.9421 8.53595 11.1585L7.05241 12.6814C6.84125 12.8978 6.84125 13.2501 7.05241 13.4665L10.6421 17.1503C10.8533 17.3667 11.1971 17.3667 11.4083 17.1503L16.8416 11.5774C17.0528 11.361 17.0528 11.0115 16.8416 10.7923L15.3581 9.26384Z" fill="white"/>
<defs>
<linearGradient id="paint0_linear_368_97346" x1="12.1895" y1="-0.231646" x2="12.1895" y2="23.986" gradientUnits="userSpaceOnUse">
<stop stop-color="#0064FF"/>
<stop offset="1" stop-color="#8DAAFF"/>
</linearGradient>
</defs>
</svg>
