<svg width="24" height="24" viewBox="0 0 24 24" fill="none" xmlns="http://www.w3.org/2000/svg">
<path d="M23.3761 6.49796C23.2461 6.01473 22.9913 5.57413 22.6375 5.22027C22.2836 4.86641 21.843 4.6117 21.3598 4.48163C19.5802 4 12.4292 4 12.4292 4C12.4292 4 5.27817 4 3.49857 4.48163C3.01534 4.6117 2.57475 4.86641 2.22089 5.22027C1.86703 5.57413 1.61232 6.01473 1.48225 6.49796C1.14996 8.31287 0.988707 10.155 1.00061 12C0.988707 13.845 1.14996 15.6871 1.48225 17.502C1.61232 17.9853 1.86703 18.4259 2.22089 18.7797C2.57475 19.1336 3.01534 19.3883 3.49857 19.5184C5.27817 20 12.4292 20 12.4292 20C12.4292 20 19.5802 20 21.3598 19.5184C21.843 19.3883 22.2836 19.1336 22.6375 18.7797C22.9913 18.4259 23.2461 17.9853 23.3761 17.502C23.7084 15.6871 23.8697 13.845 23.8578 12C23.8697 10.155 23.7084 8.31287 23.3761 6.49796ZM10.1435 15.4286V8.57143L16.0782 12L10.1435 15.4286Z" fill="#A8A8AA"/>
</svg>
